<?xml version="1.0" encoding="UTF-8"?>
<svg id="Layer_1" xmlns="http://www.w3.org/2000/svg" version="1.1" viewBox="0 0 119 119">
  <!-- Generator: Adobe Illustrator 30.2.1, SVG Export Plug-In . SVG Version: 2.1.1 Build 1)  -->
  <defs>
    <style>
      .st0 {
        fill: #a82e23;
      }

      .st1 {
        fill: #841b19;
      }

      .st2 {
        fill: #fff;
      }

      .st3 {
        fill: #bf3a27;
      }

      .st4 {
        fill: #eebab4;
      }

      .st5 {
        fill: #ec4724;
      }
    </style>
  </defs>
  <polygon class="st4" points="66.85 18.68 59.5 21.75 59.5 10.04 64.22 11.82 66.85 18.68"/>
  <polygon class="st2" points="59.5 10.04 59.5 21.75 52.15 18.68 54.78 11.82 59.5 10.04"/>
  <polygon class="st0" points="0 90.34 59.5 72.13 119 90.34 59.5 110.48 0 90.34"/>
  <polygon class="st0" points="0 83.75 59.5 65.54 119 83.75 59.5 103.9 0 83.75"/>
  <polygon class="st5" points="59.5 36.98 59.5 52.18 42.12 44.93 47.13 31.81 59.5 36.98"/>
  <polygon class="st5" points="59.5 82.62 59.5 97.83 27.05 84.28 32.06 71.17 59.5 82.62"/>
  <polygon class="st5" points="59.5 67.39 59.5 82.62 32.06 71.17 37.09 58.03 59.5 67.39"/>
  <polygon class="st3" points="66.85 18.68 59.5 21.75 59.5 13.8 64.22 11.82 66.85 18.68"/>
  <polygon class="st3" points="76.88 44.93 59.5 52.18 59.5 36.98 71.87 31.81 76.88 44.93"/>
  <polygon class="st3" points="91.95 84.28 59.5 97.83 59.5 82.62 86.94 71.17 91.95 84.28"/>
  <polygon class="st3" points="86.94 71.17 59.5 82.62 59.5 67.39 81.91 58.03 86.94 71.17"/>
  <polygon class="st5" points="59.5 36.98 59.5 52.18 42.12 44.93 47.13 31.81 59.5 36.98"/>
  <polygon class="st2" points="59.5 67.39 59.5 82.62 32.06 71.17 37.09 58.03 59.5 67.39"/>
  <polygon class="st3" points="66.85 18.68 59.5 21.75 59.5 10.04 64.22 11.82 66.85 18.68"/>
  <polygon class="st3" points="76.88 44.93 59.5 52.18 59.5 36.98 71.87 31.81 76.88 44.93"/>
  <polygon class="st4" points="86.94 71.17 59.5 82.62 59.5 67.39 81.91 58.03 86.94 71.17"/>
  <polygon class="st5" points="59.5 52.18 59.5 67.39 37.09 58.03 42.12 44.93 59.5 52.18"/>
  <polygon class="st5" points="59.5 36.98 59.5 52.18 42.12 44.93 47.13 31.81 59.5 36.98"/>
  <polygon class="st3" points="66.85 18.68 59.5 21.75 59.5 10.04 64.22 11.82 66.85 18.68"/>
  <polygon class="st3" points="81.91 58.03 59.5 67.39 59.5 52.18 76.88 44.93 81.91 58.03"/>
  <polygon class="st3" points="76.88 44.93 59.5 52.18 59.5 36.98 71.87 31.81 76.88 44.93"/>
  <polygon class="st2" points="59.5 36.98 59.5 52.18 42.12 44.93 47.13 31.81 59.5 36.98"/>
  <polygon class="st3" points="66.85 18.68 59.5 21.75 59.5 10.04 64.22 11.82 66.85 18.68"/>
  <polygon class="st4" points="76.88 44.93 59.5 52.18 59.5 36.98 71.87 31.81 76.88 44.93"/>
  <polygon class="st5" points="59.5 21.75 59.5 36.98 47.13 31.81 52.15 18.68 59.5 21.75"/>
  <polygon class="st3" points="71.87 31.81 59.5 36.98 59.5 21.75 66.85 18.68 71.87 31.81"/>
  <polygon class="st4" points="66.85 18.68 59.5 21.75 59.5 10.04 64.22 11.82 66.85 18.68"/>
  <polygon class="st0" points="64.22 11.82 59.5 13.8 54.78 11.82 59.5 10.04 64.22 11.82"/>
  <polygon class="st1" points="59.5 103.9 59.5 110.48 119 90.34 119 83.75 59.5 103.9"/>
  <polygon class="st5" points="0 83.75 0 90.34 59.5 110.48 59.5 103.9 0 83.75"/>
</svg>