<?xml version="1.0" encoding="UTF-8"?>
<svg id="Layer_1" xmlns="http://www.w3.org/2000/svg" version="1.1" viewBox="0 0 119 100.44">
  <!-- Generator: Adobe Illustrator 30.2.1, SVG Export Plug-In . SVG Version: 2.1.1 Build 1)  -->
  <defs>
    <style>
      .st0 {
        fill: #a82e23;
      }

      .st1 {
        fill: #841b19;
      }

      .st2 {
        fill: #fff;
      }

      .st3 {
        fill: #bf3a27;
      }

      .st4 {
        fill: #eebab4;
      }

      .st5 {
        fill: #ec4724;
      }
    </style>
  </defs>
  <polygon class="st4" points="66.85 8.64 59.5 11.71 59.5 0 64.22 1.78 66.85 8.64"/>
  <polygon class="st2" points="59.5 0 59.5 11.71 52.15 8.64 54.78 1.78 59.5 0"/>
  <polygon class="st0" points="0 80.3 59.5 62.09 119 80.3 59.5 100.44 0 80.3"/>
  <polygon class="st0" points="0 73.71 59.5 55.5 119 73.71 59.5 93.86 0 73.71"/>
  <polygon class="st5" points="59.5 26.94 59.5 42.14 42.12 34.89 47.13 21.77 59.5 26.94"/>
  <polygon class="st5" points="59.5 72.58 59.5 87.79 27.05 74.24 32.06 61.13 59.5 72.58"/>
  <polygon class="st5" points="59.5 57.35 59.5 72.58 32.06 61.13 37.09 47.99 59.5 57.35"/>
  <polygon class="st3" points="66.85 8.64 59.5 11.71 59.5 3.76 64.22 1.78 66.85 8.64"/>
  <polygon class="st3" points="76.88 34.89 59.5 42.14 59.5 26.94 71.87 21.77 76.88 34.89"/>
  <polygon class="st3" points="91.95 74.24 59.5 87.79 59.5 72.58 86.94 61.13 91.95 74.24"/>
  <polygon class="st3" points="86.94 61.13 59.5 72.58 59.5 57.35 81.91 47.99 86.94 61.13"/>
  <polygon class="st5" points="59.5 26.94 59.5 42.14 42.12 34.89 47.13 21.77 59.5 26.94"/>
  <polygon class="st2" points="59.5 57.35 59.5 72.58 32.06 61.13 37.09 47.99 59.5 57.35"/>
  <polygon class="st3" points="66.85 8.64 59.5 11.71 59.5 0 64.22 1.78 66.85 8.64"/>
  <polygon class="st3" points="76.88 34.89 59.5 42.14 59.5 26.94 71.87 21.77 76.88 34.89"/>
  <polygon class="st4" points="86.94 61.13 59.5 72.58 59.5 57.35 81.91 47.99 86.94 61.13"/>
  <polygon class="st5" points="59.5 42.14 59.5 57.35 37.09 47.99 42.12 34.89 59.5 42.14"/>
  <polygon class="st5" points="59.5 26.94 59.5 42.14 42.12 34.89 47.13 21.77 59.5 26.94"/>
  <polygon class="st3" points="66.85 8.64 59.5 11.71 59.5 0 64.22 1.78 66.85 8.64"/>
  <polygon class="st3" points="81.91 47.99 59.5 57.35 59.5 42.14 76.88 34.89 81.91 47.99"/>
  <polygon class="st3" points="76.88 34.89 59.5 42.14 59.5 26.94 71.87 21.77 76.88 34.89"/>
  <polygon class="st2" points="59.5 26.94 59.5 42.14 42.12 34.89 47.13 21.77 59.5 26.94"/>
  <polygon class="st3" points="66.85 8.64 59.5 11.71 59.5 0 64.22 1.78 66.85 8.64"/>
  <polygon class="st4" points="76.88 34.89 59.5 42.14 59.5 26.94 71.87 21.77 76.88 34.89"/>
  <polygon class="st5" points="59.5 11.71 59.5 26.94 47.13 21.77 52.15 8.64 59.5 11.71"/>
  <polygon class="st3" points="71.87 21.77 59.5 26.94 59.5 11.71 66.85 8.64 71.87 21.77"/>
  <polygon class="st4" points="66.85 8.64 59.5 11.71 59.5 0 64.22 1.78 66.85 8.64"/>
  <polygon class="st0" points="64.22 1.78 59.5 3.76 54.78 1.78 59.5 0 64.22 1.78"/>
  <polygon class="st1" points="59.5 93.86 59.5 100.44 119 80.3 119 73.71 59.5 93.86"/>
  <polygon class="st5" points="0 73.71 0 80.3 59.5 100.44 59.5 93.86 0 73.71"/>
</svg>